# xmcd
#
# Track frame offsets: 
#        150
#        18504
#        31926
#        47658
#        64739
#        88907
#        102073
#        118614
#        136173
#        152663
#        173437
#
# Disc length: 2694 seconds
#
# Revision: 2
# Processed by: cddbd v1.4PL0 Copyright (c) Steve Scherf et al.
# Submitted via: ExactAudioCopy v0.90b4
#
DISCID=810a840b
DTITLE=Tomasz Szwed - Afirmacje
DYEAR=1900
DGENRE=
TTITLE0=Cieple Piwo I Zimne Kobiety
TTITLE1=Kochaj I Rob Co Chcesz
TTITLE2=Co Ludzie O Tobie Powiedza
TTITLE3=Miej Czas Dla Innych
TTITLE4=Tam Jeszcze Jest Dobrze
TTITLE5=Kiedy Grabie Siano
TTITLE6=Domowe Wino
TTITLE7=Trawa Niebieskich Lak
TTITLE8=Siedze Na Ganku
TTITLE9=Tam Wciaz Nie Ma Mnie
TTITLE10=Byle Doczekac
EXTD=
EXTT0=
EXTT1=
EXTT2=
EXTT3=
EXTT4=
EXTT5=
EXTT6=
EXTT7=
EXTT8=
EXTT9=
EXTT10=
PLAYORDER=
